<?xml version="1.0" encoding="us-ascii" standalone="no"?><svg xmlns="http://www.w3.org/2000/svg" xmlns:xlink="http://www.w3.org/1999/xlink" contentStyleType="text/css" height="1288px" preserveAspectRatio="none" style="width:864px;height:1288px;background:#FFFFFF;" version="1.1" viewBox="0 0 864 1288" width="864px" zoomAndPan="magnify"><defs/><g><rect fill="#FFFFFF" height="29.1328" style="stroke:#181818;stroke-width:1.0;" width="10" x="32" y="922.8203"/><rect fill="#FFFFFF" height="29.1328" style="stroke:#181818;stroke-width:1.0;" width="10" x="235" y="183.6953"/><rect fill="#FFFFFF" height="29.1328" style="stroke:#181818;stroke-width:1.0;" width="10" x="295.5" y="241.9609"/><rect fill="#FFFFFF" height="29.1328" style="stroke:#181818;stroke-width:1.0;" width="10" x="295.5" y="513.9609"/><rect fill="#FFFFFF" height="29.1328" style="stroke:#181818;stroke-width:1.0;" width="10" x="295.5" y="835.4219"/><rect fill="#FFFFFF" height="29.1328" style="stroke:#181818;stroke-width:1.0;" width="10" x="434.5" y="382.625"/><rect fill="#FFFFFF" height="44.2656" style="stroke:#181818;stroke-width:1.0;" width="10" x="434.5" y="630.4922"/><rect fill="#FFFFFF" height="87.3984" style="stroke:#181818;stroke-width:1.0;" width="10" x="582.5" y="353.4922"/><rect fill="#FFFFFF" height="87.3984" style="stroke:#181818;stroke-width:1.0;" width="10" x="582.5" y="484.8281"/><rect fill="#FFFFFF" height="102.5313" style="stroke:#181818;stroke-width:1.0;" width="10" x="582.5" y="601.3594"/><rect fill="#FFFFFF" height="129.5313" style="stroke:#181818;stroke-width:1.0;" width="10" x="677" y="764.1563"/><rect fill="#FFFFFF" height="113.3984" style="stroke:#181818;stroke-width:1.0;" width="10" x="677" y="1062.1563"/><rect fill="none" height="396.6641" style="stroke:#000000;stroke-width:1.5;" width="521" x="130" y="315.2266"/><rect fill="none" height="464.6641" style="stroke:#000000;stroke-width:1.5;" width="848" x="10" y="725.8906"/><rect fill="none" height="216.6016" style="stroke:#000000;stroke-width:1.5;" width="718" x="130" y="966.9531"/><line style="stroke:#181818;stroke-width:0.5;stroke-dasharray:5.0,5.0;" x1="37" x2="37" y1="81.2969" y2="1207.5547"/><line style="stroke:#181818;stroke-width:0.5;stroke-dasharray:5.0,5.0;" x1="160" x2="160" y1="81.2969" y2="1207.5547"/><line style="stroke:#181818;stroke-width:0.5;stroke-dasharray:5.0,5.0;" x1="240" x2="240" y1="81.2969" y2="1207.5547"/><line style="stroke:#181818;stroke-width:0.5;stroke-dasharray:5.0,5.0;" x1="300" x2="300" y1="81.2969" y2="1207.5547"/><line style="stroke:#181818;stroke-width:0.5;stroke-dasharray:5.0,5.0;" x1="365" x2="365" y1="81.2969" y2="1207.5547"/><line style="stroke:#181818;stroke-width:0.5;stroke-dasharray:5.0,5.0;" x1="439" x2="439" y1="81.2969" y2="1207.5547"/><line style="stroke:#181818;stroke-width:0.5;stroke-dasharray:5.0,5.0;" x1="587" x2="587" y1="81.2969" y2="1207.5547"/><line style="stroke:#181818;stroke-width:0.5;stroke-dasharray:5.0,5.0;" x1="682" x2="682" y1="81.2969" y2="1207.5547"/><text fill="#000000" font-family="sans-serif" font-size="14" lengthAdjust="spacing" textLength="28" x="20" y="77.9951">&#29992;&#25143;</text><ellipse cx="37" cy="13.5" fill="#E2E2F0" rx="8" ry="8" style="stroke:#181818;stroke-width:0.5;"/><path d="M37,21.5 L37,48.5 M24,29.5 L50,29.5 M37,48.5 L24,63.5 M37,48.5 L50,63.5 " fill="none" style="stroke:#181818;stroke-width:0.5;"/><text fill="#000000" font-family="sans-serif" font-size="14" lengthAdjust="spacing" textLength="28" x="20" y="1219.5498">&#29992;&#25143;</text><ellipse cx="37" cy="1231.3516" fill="#E2E2F0" rx="8" ry="8" style="stroke:#181818;stroke-width:0.5;"/><path d="M37,1239.3516 L37,1266.3516 M24,1247.3516 L50,1247.3516 M37,1266.3516 L24,1281.3516 M37,1266.3516 L50,1281.3516 " fill="none" style="stroke:#181818;stroke-width:0.5;"/><rect fill="#E2E2F0" height="30.2969" rx="2.5" ry="2.5" style="stroke:#181818;stroke-width:0.5;" width="40" x="140" y="50"/><text fill="#000000" font-family="sans-serif" font-size="14" lengthAdjust="spacing" textLength="26" x="147" y="69.9951">app</text><rect fill="#E2E2F0" height="30.2969" rx="2.5" ry="2.5" style="stroke:#181818;stroke-width:0.5;" width="40" x="140" y="1206.5547"/><text fill="#000000" font-family="sans-serif" font-size="14" lengthAdjust="spacing" textLength="26" x="147" y="1226.5498">app</text><rect fill="#E2E2F0" height="30.2969" rx="2.5" ry="2.5" style="stroke:#181818;stroke-width:0.5;" width="56" x="212" y="50"/><text fill="#000000" font-family="sans-serif" font-size="14" lengthAdjust="spacing" textLength="42" x="219" y="69.9951">config</text><rect fill="#E2E2F0" height="30.2969" rx="2.5" ry="2.5" style="stroke:#181818;stroke-width:0.5;" width="56" x="212" y="1206.5547"/><text fill="#000000" font-family="sans-serif" font-size="14" lengthAdjust="spacing" textLength="42" x="219" y="1226.5498">config</text><rect fill="#E2E2F0" height="30.2969" rx="2.5" ry="2.5" style="stroke:#181818;stroke-width:0.5;" width="45" x="278" y="50"/><text fill="#000000" font-family="sans-serif" font-size="14" lengthAdjust="spacing" textLength="31" x="285" y="69.9951">core</text><rect fill="#E2E2F0" height="30.2969" rx="2.5" ry="2.5" style="stroke:#181818;stroke-width:0.5;" width="45" x="278" y="1206.5547"/><text fill="#000000" font-family="sans-serif" font-size="14" lengthAdjust="spacing" textLength="31" x="285" y="1226.5498">core</text><rect fill="#E2E2F0" height="30.2969" rx="2.5" ry="2.5" style="stroke:#181818;stroke-width:0.5;" width="64" x="333" y="50"/><text fill="#000000" font-family="sans-serif" font-size="14" lengthAdjust="spacing" textLength="50" x="340" y="69.9951">plugins</text><rect fill="#E2E2F0" height="30.2969" rx="2.5" ry="2.5" style="stroke:#181818;stroke-width:0.5;" width="64" x="333" y="1206.5547"/><text fill="#000000" font-family="sans-serif" font-size="14" lengthAdjust="spacing" textLength="50" x="340" y="1226.5498">plugins</text><rect fill="#E2E2F0" height="30.2969" rx="2.5" ry="2.5" style="stroke:#181818;stroke-width:0.5;" width="65" x="407" y="50"/><text fill="#000000" font-family="sans-serif" font-size="14" lengthAdjust="spacing" textLength="51" x="414" y="69.9951">models</text><rect fill="#E2E2F0" height="30.2969" rx="2.5" ry="2.5" style="stroke:#181818;stroke-width:0.5;" width="65" x="407" y="1206.5547"/><text fill="#000000" font-family="sans-serif" font-size="14" lengthAdjust="spacing" textLength="51" x="414" y="1226.5498">models</text><rect fill="#E2E2F0" height="30.2969" rx="2.5" ry="2.5" style="stroke:#181818;stroke-width:0.5;" width="107" x="534" y="50"/><text fill="#000000" font-family="sans-serif" font-size="14" lengthAdjust="spacing" textLength="93" x="541" y="69.9951">agent_factory</text><rect fill="#E2E2F0" height="30.2969" rx="2.5" ry="2.5" style="stroke:#181818;stroke-width:0.5;" width="107" x="534" y="1206.5547"/><text fill="#000000" font-family="sans-serif" font-size="14" lengthAdjust="spacing" textLength="93" x="541" y="1226.5498">agent_factory</text><rect fill="#E2E2F0" height="30.2969" rx="2.5" ry="2.5" style="stroke:#181818;stroke-width:0.5;" width="62" x="651" y="50"/><text fill="#000000" font-family="sans-serif" font-size="14" lengthAdjust="spacing" textLength="48" x="658" y="69.9951">agents</text><rect fill="#E2E2F0" height="30.2969" rx="2.5" ry="2.5" style="stroke:#181818;stroke-width:0.5;" width="62" x="651" y="1206.5547"/><text fill="#000000" font-family="sans-serif" font-size="14" lengthAdjust="spacing" textLength="48" x="658" y="1226.5498">agents</text><rect fill="#FFFFFF" height="29.1328" style="stroke:#181818;stroke-width:1.0;" width="10" x="32" y="922.8203"/><rect fill="#FFFFFF" height="29.1328" style="stroke:#181818;stroke-width:1.0;" width="10" x="235" y="183.6953"/><rect fill="#FFFFFF" height="29.1328" style="stroke:#181818;stroke-width:1.0;" width="10" x="295.5" y="241.9609"/><rect fill="#FFFFFF" height="29.1328" style="stroke:#181818;stroke-width:1.0;" width="10" x="295.5" y="513.9609"/><rect fill="#FFFFFF" height="29.1328" style="stroke:#181818;stroke-width:1.0;" width="10" x="295.5" y="835.4219"/><rect fill="#FFFFFF" height="29.1328" style="stroke:#181818;stroke-width:1.0;" width="10" x="434.5" y="382.625"/><rect fill="#FFFFFF" height="44.2656" style="stroke:#181818;stroke-width:1.0;" width="10" x="434.5" y="630.4922"/><rect fill="#FFFFFF" height="87.3984" style="stroke:#181818;stroke-width:1.0;" width="10" x="582.5" y="353.4922"/><rect fill="#FFFFFF" height="87.3984" style="stroke:#181818;stroke-width:1.0;" width="10" x="582.5" y="484.8281"/><rect fill="#FFFFFF" height="102.5313" style="stroke:#181818;stroke-width:1.0;" width="10" x="582.5" y="601.3594"/><rect fill="#FFFFFF" height="129.5313" style="stroke:#181818;stroke-width:1.0;" width="10" x="677" y="764.1563"/><rect fill="#FFFFFF" height="113.3984" style="stroke:#181818;stroke-width:1.0;" width="10" x="677" y="1062.1563"/><polygon fill="#181818" points="148,108.4297,158,112.4297,148,116.4297,152,112.4297" style="stroke:#181818;stroke-width:1.0;"/><line style="stroke:#181818;stroke-width:1.0;" x1="37" x2="154" y1="112.4297" y2="112.4297"/><text fill="#000000" font-family="sans-serif" font-size="13" font-weight="bold" lengthAdjust="spacing" textLength="9" x="44" y="107.3638">1</text><text fill="#000000" font-family="sans-serif" font-size="13" lengthAdjust="spacing" textLength="21" x="57" y="107.3638">run</text><line style="stroke:#181818;stroke-width:1.0;" x1="160" x2="202" y1="141.5625" y2="141.5625"/><line style="stroke:#181818;stroke-width:1.0;" x1="202" x2="202" y1="141.5625" y2="154.5625"/><line style="stroke:#181818;stroke-width:1.0;" x1="161" x2="202" y1="154.5625" y2="154.5625"/><polygon fill="#181818" points="171,150.5625,161,154.5625,171,158.5625,167,154.5625" style="stroke:#181818;stroke-width:1.0;"/><text fill="#000000" font-family="sans-serif" font-size="13" font-weight="bold" lengthAdjust="spacing" textLength="9" x="167" y="136.4966">2</text><text fill="#000000" font-family="sans-serif" font-size="13" lengthAdjust="spacing" textLength="52" x="180" y="136.4966">&#35299;&#26512;&#21442;&#25968;</text><polygon fill="#181818" points="223,179.6953,233,183.6953,223,187.6953,227,183.6953" style="stroke:#181818;stroke-width:1.0;"/><line style="stroke:#181818;stroke-width:1.0;" x1="160" x2="229" y1="183.6953" y2="183.6953"/><text fill="#000000" font-family="sans-serif" font-size="13" font-weight="bold" lengthAdjust="spacing" textLength="9" x="167" y="178.6294">3</text><text fill="#000000" font-family="sans-serif" font-size="13" lengthAdjust="spacing" textLength="4" x="180" y="178.6294">&#160;</text><polygon fill="#181818" points="171,208.8281,161,212.8281,171,216.8281,167,212.8281" style="stroke:#181818;stroke-width:1.0;"/><line style="stroke:#181818;stroke-width:1.0;" x1="165" x2="239" y1="212.8281" y2="212.8281"/><text fill="#000000" font-family="sans-serif" font-size="13" font-weight="bold" lengthAdjust="spacing" textLength="9" x="177" y="207.7622">4</text><text fill="#000000" font-family="sans-serif" font-size="13" lengthAdjust="spacing" textLength="38" x="190" y="207.7622">config</text><polygon fill="#181818" points="283.5,237.9609,293.5,241.9609,283.5,245.9609,287.5,241.9609" style="stroke:#181818;stroke-width:1.0;"/><line style="stroke:#181818;stroke-width:1.0;" x1="160" x2="289.5" y1="241.9609" y2="241.9609"/><text fill="#000000" font-family="sans-serif" font-size="13" font-weight="bold" lengthAdjust="spacing" textLength="9" x="167" y="236.895">5</text><text fill="#000000" font-family="sans-serif" font-size="13" lengthAdjust="spacing" textLength="38" x="180" y="236.895">config</text><polygon fill="#181818" points="171,267.0938,161,271.0938,171,275.0938,167,271.0938" style="stroke:#181818;stroke-width:1.0;"/><line style="stroke:#181818;stroke-width:1.0;" x1="165" x2="299.5" y1="271.0938" y2="271.0938"/><text fill="#000000" font-family="sans-serif" font-size="13" font-weight="bold" lengthAdjust="spacing" textLength="9" x="177" y="266.0278">6</text><text fill="#000000" font-family="sans-serif" font-size="13" lengthAdjust="spacing" textLength="25" x="190" y="266.0278">LLM</text><polygon fill="#181818" points="353,296.2266,363,300.2266,353,304.2266,357,300.2266" style="stroke:#181818;stroke-width:1.0;"/><line style="stroke:#181818;stroke-width:1.0;" x1="160" x2="359" y1="300.2266" y2="300.2266"/><text fill="#000000" font-family="sans-serif" font-size="13" font-weight="bold" lengthAdjust="spacing" textLength="9" x="167" y="295.1606">7</text><text fill="#000000" font-family="sans-serif" font-size="13" lengthAdjust="spacing" textLength="91" x="180" y="295.1606">&#25195;&#25551;&#12289;&#37197;&#32622;&#25554;&#20214;</text><path d="M130,315.2266 L194,315.2266 L194,322.3594 L184,332.3594 L130,332.3594 L130,315.2266 " fill="#EEEEEE" style="stroke:#000000;stroke-width:1.5;"/><rect fill="none" height="396.6641" style="stroke:#000000;stroke-width:1.5;" width="521" x="130" y="315.2266"/><text fill="#000000" font-family="sans-serif" font-size="13" font-weight="bold" lengthAdjust="spacing" textLength="19" x="145" y="328.2935">alt</text><text fill="#000000" font-family="sans-serif" font-size="11" font-weight="bold" lengthAdjust="spacing" textLength="91" x="209" y="327.437">[&#21152;&#36733;&#24050;&#26377;agent]</text><polygon fill="#181818" points="570.5,349.4922,580.5,353.4922,570.5,357.4922,574.5,353.4922" style="stroke:#181818;stroke-width:1.0;"/><line style="stroke:#181818;stroke-width:1.0;" x1="160" x2="576.5" y1="353.4922" y2="353.4922"/><text fill="#000000" font-family="sans-serif" font-size="13" font-weight="bold" lengthAdjust="spacing" textLength="9" x="167" y="348.4263">8</text><text fill="#000000" font-family="sans-serif" font-size="13" lengthAdjust="spacing" textLength="214" x="180" y="348.4263">input agent id/name+LLM+config</text><polygon fill="#181818" points="455.5,378.625,445.5,382.625,455.5,386.625,451.5,382.625" style="stroke:#181818;stroke-width:1.0;"/><line style="stroke:#181818;stroke-width:1.0;" x1="449.5" x2="581.5" y1="382.625" y2="382.625"/><text fill="#000000" font-family="sans-serif" font-size="13" font-weight="bold" lengthAdjust="spacing" textLength="9" x="461.5" y="377.5591">9</text><text fill="#000000" font-family="sans-serif" font-size="13" lengthAdjust="spacing" textLength="4" x="474.5" y="377.5591">&#160;</text><polygon fill="#181818" points="570.5,407.7578,580.5,411.7578,570.5,415.7578,574.5,411.7578" style="stroke:#181818;stroke-width:1.0;"/><line style="stroke:#181818;stroke-width:1.0;" x1="439.5" x2="576.5" y1="411.7578" y2="411.7578"/><text fill="#000000" font-family="sans-serif" font-size="13" font-weight="bold" lengthAdjust="spacing" textLength="18" x="446.5" y="406.6919">10</text><text fill="#000000" font-family="sans-serif" font-size="13" lengthAdjust="spacing" textLength="67" x="468.5" y="406.6919">Command</text><polygon fill="#181818" points="171,436.8906,161,440.8906,171,444.8906,167,440.8906" style="stroke:#181818;stroke-width:1.0;"/><line style="stroke:#181818;stroke-width:1.0;" x1="165" x2="586.5" y1="440.8906" y2="440.8906"/><text fill="#000000" font-family="sans-serif" font-size="13" font-weight="bold" lengthAdjust="spacing" textLength="18" x="177" y="435.8247">11</text><text fill="#000000" font-family="sans-serif" font-size="13" lengthAdjust="spacing" textLength="37" x="199" y="435.8247">agent</text><line style="stroke:#000000;stroke-width:1.0;stroke-dasharray:2.0,2.0;" x1="130" x2="651" y1="449.8906" y2="449.8906"/><text fill="#000000" font-family="sans-serif" font-size="11" font-weight="bold" lengthAdjust="spacing" textLength="80" x="135" y="460.1011">[&#21019;&#24314;&#26032;agent]</text><polygon fill="#181818" points="570.5,480.8281,580.5,484.8281,570.5,488.8281,574.5,484.8281" style="stroke:#181818;stroke-width:1.0;"/><line style="stroke:#181818;stroke-width:1.0;" x1="160" x2="576.5" y1="484.8281" y2="484.8281"/><text fill="#000000" font-family="sans-serif" font-size="13" font-weight="bold" lengthAdjust="spacing" textLength="18" x="167" y="479.7622">12</text><text fill="#000000" font-family="sans-serif" font-size="13" lengthAdjust="spacing" textLength="112" x="189" y="479.7622">task+config+LLM</text><polygon fill="#181818" points="316.5,509.9609,306.5,513.9609,316.5,517.9609,312.5,513.9609" style="stroke:#181818;stroke-width:1.0;"/><line style="stroke:#181818;stroke-width:1.0;" x1="310.5" x2="581.5" y1="513.9609" y2="513.9609"/><text fill="#000000" font-family="sans-serif" font-size="13" font-weight="bold" lengthAdjust="spacing" textLength="18" x="322.5" y="508.895">13</text><text fill="#000000" font-family="sans-serif" font-size="13" lengthAdjust="spacing" textLength="51" x="344.5" y="508.895">&#35843;&#29992;LLM</text><polygon fill="#181818" points="570.5,539.0938,580.5,543.0938,570.5,547.0938,574.5,543.0938" style="stroke:#181818;stroke-width:1.0;"/><line style="stroke:#181818;stroke-width:1.0;" x1="300.5" x2="576.5" y1="543.0938" y2="543.0938"/><text fill="#000000" font-family="sans-serif" font-size="13" font-weight="bold" lengthAdjust="spacing" textLength="18" x="307.5" y="538.0278">14</text><text fill="#000000" font-family="sans-serif" font-size="13" lengthAdjust="spacing" textLength="59" x="329.5" y="538.0278">response</text><polygon fill="#181818" points="171,568.2266,161,572.2266,171,576.2266,167,572.2266" style="stroke:#181818;stroke-width:1.0;"/><line style="stroke:#181818;stroke-width:1.0;" x1="165" x2="586.5" y1="572.2266" y2="572.2266"/><text fill="#000000" font-family="sans-serif" font-size="13" font-weight="bold" lengthAdjust="spacing" textLength="18" x="177" y="567.1606">15</text><text fill="#000000" font-family="sans-serif" font-size="13" lengthAdjust="spacing" textLength="244" x="199" y="567.1606">&#10024; &#20219;&#21153;&#30456;&#20851;&#37197;&#32622;(name+role+directives)</text><polygon fill="#181818" points="570.5,597.3594,580.5,601.3594,570.5,605.3594,574.5,601.3594" style="stroke:#181818;stroke-width:1.0;"/><line style="stroke:#181818;stroke-width:1.0;" x1="160" x2="576.5" y1="601.3594" y2="601.3594"/><text fill="#000000" font-family="sans-serif" font-size="13" font-weight="bold" lengthAdjust="spacing" textLength="18" x="167" y="596.2935">16</text><text fill="#000000" font-family="sans-serif" font-size="13" lengthAdjust="spacing" textLength="112" x="189" y="596.2935">task+config+LLM</text><polygon fill="#181818" points="455.5,626.4922,445.5,630.4922,455.5,634.4922,451.5,630.4922" style="stroke:#181818;stroke-width:1.0;"/><line style="stroke:#181818;stroke-width:1.0;" x1="449.5" x2="581.5" y1="630.4922" y2="630.4922"/><text fill="#000000" font-family="sans-serif" font-size="13" font-weight="bold" lengthAdjust="spacing" textLength="18" x="461.5" y="625.4263">17</text><text fill="#000000" font-family="sans-serif" font-size="13" lengthAdjust="spacing" textLength="4" x="483.5" y="625.4263">&#160;</text><polygon fill="#181818" points="570.5,670.7578,580.5,674.7578,570.5,678.7578,574.5,674.7578" style="stroke:#181818;stroke-width:1.0;"/><line style="stroke:#181818;stroke-width:1.0;" x1="439.5" x2="576.5" y1="674.7578" y2="674.7578"/><text fill="#000000" font-family="sans-serif" font-size="13" font-weight="bold" lengthAdjust="spacing" textLength="18" x="446.5" y="662.1255">18</text><text fill="#000000" font-family="sans-serif" font-size="13" lengthAdjust="spacing" textLength="67" x="468.5" y="654.5591">Command</text><text fill="#000000" font-family="sans-serif" font-size="13" lengthAdjust="spacing" textLength="92" x="468.5" y="669.6919">+EventHistory</text><polygon fill="#181818" points="171,699.8906,161,703.8906,171,707.8906,167,703.8906" style="stroke:#181818;stroke-width:1.0;"/><line style="stroke:#181818;stroke-width:1.0;" x1="165" x2="586.5" y1="703.8906" y2="703.8906"/><text fill="#000000" font-family="sans-serif" font-size="13" font-weight="bold" lengthAdjust="spacing" textLength="18" x="177" y="698.8247">19</text><text fill="#000000" font-family="sans-serif" font-size="13" lengthAdjust="spacing" textLength="37" x="199" y="698.8247">agent</text><path d="M10,725.8906 L87,725.8906 L87,733.0234 L77,743.0234 L10,743.0234 L10,725.8906 " fill="#EEEEEE" style="stroke:#000000;stroke-width:1.5;"/><rect fill="none" height="464.6641" style="stroke:#000000;stroke-width:1.5;" width="848" x="10" y="725.8906"/><text fill="#000000" font-family="sans-serif" font-size="13" font-weight="bold" lengthAdjust="spacing" textLength="32" x="25" y="738.9575">loop</text><text fill="#000000" font-family="sans-serif" font-size="11" font-weight="bold" lengthAdjust="spacing" textLength="185" x="102" y="738.1011">[while(stop_reason is None)]</text><polygon fill="#181818" points="665,760.1563,675,764.1563,665,768.1563,669,764.1563" style="stroke:#181818;stroke-width:1.0;"/><line style="stroke:#181818;stroke-width:1.0;" x1="160" x2="671" y1="764.1563" y2="764.1563"/><text fill="#000000" font-family="sans-serif" font-size="13" font-weight="bold" lengthAdjust="spacing" textLength="18" x="167" y="759.0903">20</text><text fill="#000000" font-family="sans-serif" font-size="13" lengthAdjust="spacing" textLength="241" x="189" y="759.0903">&#25191;&#34892;Plan&#29983;&#25104;&#65306;agent.propose_action()</text><line style="stroke:#181818;stroke-width:1.0;" x1="687" x2="729" y1="793.2891" y2="793.2891"/><line style="stroke:#181818;stroke-width:1.0;" x1="729" x2="729" y1="793.2891" y2="806.2891"/><line style="stroke:#181818;stroke-width:1.0;" x1="688" x2="729" y1="806.2891" y2="806.2891"/><polygon fill="#181818" points="698,802.2891,688,806.2891,698,810.2891,694,806.2891" style="stroke:#181818;stroke-width:1.0;"/><text fill="#000000" font-family="sans-serif" font-size="13" font-weight="bold" lengthAdjust="spacing" textLength="18" x="694" y="788.2231">21</text><text fill="#000000" font-family="sans-serif" font-size="13" lengthAdjust="spacing" textLength="93" x="716" y="788.2231">&#10024; build prompt</text><polygon fill="#181818" points="316.5,831.4219,306.5,835.4219,316.5,839.4219,312.5,835.4219" style="stroke:#181818;stroke-width:1.0;"/><line style="stroke:#181818;stroke-width:1.0;" x1="310.5" x2="676" y1="835.4219" y2="835.4219"/><text fill="#000000" font-family="sans-serif" font-size="13" font-weight="bold" lengthAdjust="spacing" textLength="18" x="322.5" y="830.356">22</text><text fill="#000000" font-family="sans-serif" font-size="13" lengthAdjust="spacing" textLength="51" x="344.5" y="830.356">&#35843;&#29992;LLM</text><polygon fill="#181818" points="665,860.5547,675,864.5547,665,868.5547,669,864.5547" style="stroke:#181818;stroke-width:1.0;"/><line style="stroke:#181818;stroke-width:1.0;" x1="300.5" x2="671" y1="864.5547" y2="864.5547"/><text fill="#000000" font-family="sans-serif" font-size="13" font-weight="bold" lengthAdjust="spacing" textLength="18" x="307.5" y="859.4888">23</text><text fill="#000000" font-family="sans-serif" font-size="13" lengthAdjust="spacing" textLength="59" x="329.5" y="859.4888">response</text><polygon fill="#181818" points="171,889.6875,161,893.6875,171,897.6875,167,893.6875" style="stroke:#181818;stroke-width:1.0;"/><line style="stroke:#181818;stroke-width:1.0;" x1="165" x2="681" y1="893.6875" y2="893.6875"/><text fill="#000000" font-family="sans-serif" font-size="13" font-weight="bold" lengthAdjust="spacing" textLength="18" x="177" y="888.6216">24</text><text fill="#000000" font-family="sans-serif" font-size="13" lengthAdjust="spacing" textLength="262" x="199" y="888.6216">command_name+command_args+reply</text><polygon fill="#181818" points="53,918.8203,43,922.8203,53,926.8203,49,922.8203" style="stroke:#181818;stroke-width:1.0;"/><line style="stroke:#181818;stroke-width:1.0;" x1="47" x2="159" y1="922.8203" y2="922.8203"/><text fill="#000000" font-family="sans-serif" font-size="13" font-weight="bold" lengthAdjust="spacing" textLength="18" x="59" y="917.7544">25</text><text fill="#000000" font-family="sans-serif" font-size="13" lengthAdjust="spacing" textLength="77" x="81" y="917.7544">update user</text><polygon fill="#181818" points="148,947.9531,158,951.9531,148,955.9531,152,951.9531" style="stroke:#181818;stroke-width:1.0;"/><line style="stroke:#181818;stroke-width:1.0;" x1="37" x2="154" y1="951.9531" y2="951.9531"/><text fill="#000000" font-family="sans-serif" font-size="13" font-weight="bold" lengthAdjust="spacing" textLength="18" x="44" y="946.8872">26</text><text fill="#000000" font-family="sans-serif" font-size="13" lengthAdjust="spacing" textLength="64" x="66" y="946.8872">user input</text><path d="M130,966.9531 L194,966.9531 L194,974.0859 L184,984.0859 L130,984.0859 L130,966.9531 " fill="#EEEEEE" style="stroke:#000000;stroke-width:1.5;"/><rect fill="none" height="216.6016" style="stroke:#000000;stroke-width:1.5;" width="718" x="130" y="966.9531"/><text fill="#000000" font-family="sans-serif" font-size="13" font-weight="bold" lengthAdjust="spacing" textLength="19" x="145" y="980.02">alt</text><text fill="#000000" font-family="sans-serif" font-size="11" font-weight="bold" lengthAdjust="spacing" textLength="34" x="209" y="979.1636">[Exit]</text><line style="stroke:#181818;stroke-width:1.0;" x1="160" x2="202" y1="1005.2188" y2="1005.2188"/><line style="stroke:#181818;stroke-width:1.0;" x1="202" x2="202" y1="1005.2188" y2="1018.2188"/><line style="stroke:#181818;stroke-width:1.0;" x1="161" x2="202" y1="1018.2188" y2="1018.2188"/><polygon fill="#181818" points="171,1014.2188,161,1018.2188,171,1022.2188,167,1018.2188" style="stroke:#181818;stroke-width:1.0;"/><text fill="#000000" font-family="sans-serif" font-size="13" font-weight="bold" lengthAdjust="spacing" textLength="18" x="167" y="1000.1528">27</text><text fill="#000000" font-family="sans-serif" font-size="13" lengthAdjust="spacing" textLength="33" x="189" y="1000.1528">exit()</text><line style="stroke:#000000;stroke-width:1.0;stroke-dasharray:2.0,2.0;" x1="130" x2="848" y1="1027.2188" y2="1027.2188"/><text fill="#000000" font-family="sans-serif" font-size="11" font-weight="bold" lengthAdjust="spacing" textLength="97" x="135" y="1037.4292">[y or feedback]</text><polygon fill="#181818" points="665,1058.1563,675,1062.1563,665,1066.1563,669,1062.1563" style="stroke:#181818;stroke-width:1.0;"/><line style="stroke:#181818;stroke-width:1.0;" x1="160" x2="671" y1="1062.1563" y2="1062.1563"/><text fill="#000000" font-family="sans-serif" font-size="13" font-weight="bold" lengthAdjust="spacing" textLength="18" x="167" y="1057.0903">28</text><text fill="#000000" font-family="sans-serif" font-size="13" lengthAdjust="spacing" textLength="459" x="189" y="1057.0903">&#25191;&#34892;&#25351;&#20196;&#65306;agent.execute(command_name, command_args, user_input)</text><line style="stroke:#181818;stroke-width:1.0;" x1="687" x2="729" y1="1091.2891" y2="1091.2891"/><line style="stroke:#181818;stroke-width:1.0;" x1="729" x2="729" y1="1091.2891" y2="1104.2891"/><line style="stroke:#181818;stroke-width:1.0;" x1="688" x2="729" y1="1104.2891" y2="1104.2891"/><polygon fill="#181818" points="698,1100.2891,688,1104.2891,698,1108.2891,694,1104.2891" style="stroke:#181818;stroke-width:1.0;"/><text fill="#000000" font-family="sans-serif" font-size="13" font-weight="bold" lengthAdjust="spacing" textLength="18" x="694" y="1086.2231">29</text><text fill="#000000" font-family="sans-serif" font-size="13" lengthAdjust="spacing" textLength="120" x="716" y="1086.2231">execute command</text><line style="stroke:#181818;stroke-width:1.0;" x1="687" x2="729" y1="1133.4219" y2="1133.4219"/><line style="stroke:#181818;stroke-width:1.0;" x1="729" x2="729" y1="1133.4219" y2="1146.4219"/><line style="stroke:#181818;stroke-width:1.0;" x1="688" x2="729" y1="1146.4219" y2="1146.4219"/><polygon fill="#181818" points="698,1142.4219,688,1146.4219,698,1150.4219,694,1146.4219" style="stroke:#181818;stroke-width:1.0;"/><text fill="#000000" font-family="sans-serif" font-size="13" font-weight="bold" lengthAdjust="spacing" textLength="18" x="694" y="1128.356">30</text><text fill="#000000" font-family="sans-serif" font-size="13" lengthAdjust="spacing" textLength="92" x="716" y="1128.356">update history</text><polygon fill="#181818" points="171,1171.5547,161,1175.5547,171,1179.5547,167,1175.5547" style="stroke:#181818;stroke-width:1.0;"/><line style="stroke:#181818;stroke-width:1.0;" x1="165" x2="681" y1="1175.5547" y2="1175.5547"/><text fill="#000000" font-family="sans-serif" font-size="13" font-weight="bold" lengthAdjust="spacing" textLength="18" x="177" y="1170.4888">31</text><text fill="#000000" font-family="sans-serif" font-size="13" lengthAdjust="spacing" textLength="36" x="199" y="1170.4888">result</text></g></svg>